<?xml version="1.0" encoding="utf-8"?>
<!-- Generator: Adobe Illustrator 21.0.2, SVG Export Plug-In . SVG Version: 6.00 Build 0)  -->
<svg version="1.1" id="Layer_1" xmlns="http://www.w3.org/2000/svg" xmlns:xlink="http://www.w3.org/1999/xlink" x="0px" y="0px"
	 viewBox="0 0 1366 768" style="enable-background:new 0 0 1366 768;" xml:space="preserve">
<style type="text/css">
	.st0{opacity:0.51;fill:none;stroke:#4D4D4D;stroke-width:9;stroke-miterlimit:10;}
	.st1{display:none;opacity:0.51;}
	.st2{display:inline;fill:#0F0F13;stroke:#333333;stroke-width:4;stroke-miterlimit:10;}
	.st3{display:inline;fill:#4AFF53;stroke:#333333;stroke-width:4;stroke-miterlimit:10;}
	.st4{display:none;opacity:0.51;fill:none;stroke:#0CFF4E;stroke-width:3;stroke-miterlimit:10;}
	.st5{display:none;opacity:0.51;fill:none;stroke:#0CFF4E;stroke-width:2;stroke-miterlimit:10;}
</style>
<path class="st0" d="M0,0c20.7,40.2,56.3,93.9,117,130c183.1,109,412.9-49.8,477,29c61.2,75.2-124.1,249.9-63,343
	c65.4,99.7,316-42.7,583,68c121,50.2,202.2,134.5,252,198"/>
<path class="st0" d="M1366,0c-40.5,225.5-96,289.9-145,298c-118.1,19.6-212.8-284.9-377-270c-70.4,6.4-139.9,70.2-150,135
	c-19.1,122.5,179.2,213.5,156,268c-29.7,69.6-349.4-88-598,35C112,535.3,38.8,671.6,0,768"/>
<g id="XMLID_1_" class="st1">
	<path class="st2" d="M47.8,662.6c1.2,0.3,2.5,0.4,3.9,0.4h127.2c1.9,0,3.6-0.3,5.3-0.8c11.7-3.6,18.7-18.5,11.9-31.9
		c-2.9-5.7-4.2-12-4.5-18.4c-0.2-3.5-1-7-2.6-10.1c-5.8-11-13.4-20.5-22.4-27.9v-22.1c0-2.1-0.8-3.9-2.2-5.3
		c-1.4-1.4-3.2-2.2-5.3-2.2c-4.1,0-7.5,3.4-7.5,7.5v12c-11.6-6.1-24.5-9.4-37.9-9.2C83.1,554.9,55,573.3,40,602.3
		c-1.1,2.2-1.9,4.6-2.3,7.1c-1.7,8.8-3.5,17.6-5.2,26.3C29.6,648.2,37,660.2,47.8,662.6z"/>
	<path class="st3" d="M69.9,732.4c-12.2,0-22.1-9.9-22.1-22.1v-47.8c1.2,0.3,2.5,0.4,3.9,0.4h127.2c1.9,0,3.6-0.3,5.3-0.8v48.2
		c0,12.2-9.9,22.1-22.1,22.1H69.9z"/>
</g>
<path class="st4" d="M158.5,508c-2.6,4.1-2.5,6.8-2,8.5c0.9,3.1,3.5,3.6,4,7c0.3,2.3-0.4,4.4-1,6c-0.9,2.7-1.8,3-2,5
	c-0.2,1.9,0.4,3.4,1,5c0.5,1.2,1.4,3.1,3,5"/>
<path class="st5" d="M170,522c-0.6,0.9-1.3,2.4-1,4c0.5,2.5,3.1,3.2,3,5c-0.1,1.7-2.3,1.9-3,4c-0.6,1.8,0.2,3.7,1,5"/>
<path class="st5" d="M148,515c0.9,1,2.1,2.7,2,5c-0.1,2.3-2.3,2.6-3,5c-0.7,2.7,1.3,4.2,2,8c0.3,1.8,0.4,4.5-1,8"/>
</svg>
